# xmcd
# 
# Track frame offsets:
#     150
#     13572
#     25195
#     38580
#     49550
#     60580
#     76567
#     87372
#     98407
#     108200
#     124900
#     135150
#     146035
#     156400
#     172185
#     182780
#     196450
#     208712
#     220657
#     231012
# 
# Disc length: 3216
# 
# Revision: 7
# Processed by: cddbd v1.5.2PL0 Copyright (c) Steve Scherf et al.
# Submitted via: fre:ac v1.0.31
# 
DISCID=010c8e14
DTITLE=Various Artist - Deutsche Schlager 1962 - 1963 CD 1
DYEAR=1962
DGENRE=Schlager
TTITLE0=Mina - Heißer Sand
TTITLE1=Peter Kraus - Sweety
TTITLE2=Connie Francis - Tu mir nicht weh
TTITLE3=Will Brandes and die kleine Elisabeth - Baby-Twist
TTITLE4=Gus Backus - Linda
TTITLE5=Freddy Quinn - Aloa Oe
TTITLE6=Sacha Distel - Adios Amigo
TTITLE7=Mina - Fiesta Brasiliana
TTITLE8=Martin Lauer - Die letzte Rose der Prärie
TTITLE9=Friedel Hensch and die Cyprys - Mein Ideal
TTITLE10=Carlos Otero - Weine keine Träne um  mich, Bella Maria
TTITLE11=Siw Malmkvist - Schwarzer Kater Stanislaus
TTITLE12=Freddy Quinn - Keine Bange, Lieselotte
TTITLE13=Margot Eskens - Ein Herz, das kann man nicht kaufen
TTITLE14=Peter Alexander - Mondscheinmelodie
TTITLE15=Umberto Marcato and Siw Malmkvist - Sole Sole Sole
TTITLE16=Henri Salvador - Der Löwe schläft heut Nacht
TTITLE17=Ann-Louise Hanson - Ein Schiff nach Santiago de Chile
TTITLE18=Martin Lauer - Sacramento
TTITLE19=René Carol - Der rote Wein
EXTD=YEAR: 1997
EXTT0=
EXTT1=
EXTT2=
EXTT3=
EXTT4=
EXTT5=
EXTT6=
EXTT7=
EXTT8=
EXTT9=
EXTT10=
EXTT11=
EXTT12=
EXTT13=
EXTT14=
EXTT15=
EXTT16=
EXTT17=
EXTT18=
EXTT19=
PLAYORDER=
